<svg width="53" height="52" viewBox="0 0 53 52" fill="none" xmlns="http://www.w3.org/2000/svg">
<rect x="0.625" width="52" height="52" rx="10" fill="#D52229"/>
<path d="M37.625 21.9999C37.6261 20.1462 37.1587 18.3222 36.2662 16.6975C35.3737 15.0727 34.0851 13.6998 32.52 12.7064C30.955 11.713 29.1642 11.1311 27.3141 11.015C25.464 10.8989 23.6146 11.2522 21.9375 12.0421C20.2605 12.8321 18.8104 14.033 17.7217 15.5334C16.6331 17.0338 15.9412 18.785 15.7105 20.6244C15.4798 22.4637 15.7177 24.3315 16.402 26.0543C17.0864 27.7771 18.195 29.299 19.625 30.4787V39.9999C19.6249 40.1705 19.6684 40.3382 19.7514 40.4872C19.8343 40.6362 19.954 40.7615 20.0991 40.8512C20.2442 40.9409 20.4097 40.992 20.5801 40.9996C20.7505 41.0073 20.92 40.9713 21.0725 40.8949L26.625 38.1249L32.1788 40.9012C32.318 40.9678 32.4707 41.0016 32.625 40.9999C32.8902 40.9999 33.1446 40.8946 33.3321 40.707C33.5196 40.5195 33.625 40.2652 33.625 39.9999V30.4787C34.8762 29.4482 35.8837 28.1536 36.5753 26.6876C37.2669 25.2217 37.6253 23.6208 37.625 21.9999ZM17.625 21.9999C17.625 20.2199 18.1528 18.4799 19.1418 16.9998C20.1307 15.5198 21.5363 14.3662 23.1809 13.685C24.8254 13.0038 26.635 12.8256 28.3808 13.1729C30.1266 13.5201 31.7303 14.3773 32.989 15.636C34.2476 16.8947 35.1048 18.4983 35.4521 20.2441C35.7993 21.99 35.6211 23.7996 34.9399 25.4441C34.2587 27.0886 33.1052 28.4942 31.6251 29.4832C30.1451 30.4721 28.405 30.9999 26.625 30.9999C24.2389 30.9973 21.9512 30.0482 20.264 28.361C18.5767 26.6737 17.6276 24.3861 17.625 21.9999ZM31.625 38.3824L27.0713 36.1062C26.9323 36.0367 26.7791 36.0005 26.6238 36.0005C26.4684 36.0005 26.3152 36.0367 26.1763 36.1062L21.625 38.3824V31.7962C23.173 32.5874 24.8866 32.9999 26.625 32.9999C28.3634 32.9999 30.077 32.5874 31.625 31.7962V38.3824ZM26.625 28.9999C28.0095 28.9999 29.3628 28.5894 30.514 27.8202C31.6651 27.0511 32.5623 25.9578 33.0922 24.6787C33.622 23.3996 33.7606 21.9922 33.4905 20.6343C33.2204 19.2764 32.5537 18.0292 31.5747 17.0502C30.5958 16.0712 29.3485 15.4045 27.9906 15.1344C26.6328 14.8643 25.2253 15.003 23.9462 15.5328C22.6671 16.0626 21.5739 16.9598 20.8047 18.1109C20.0355 19.2621 19.625 20.6155 19.625 21.9999C19.627 23.8558 20.3651 25.6352 21.6774 26.9475C22.9898 28.2598 24.7691 28.998 26.625 28.9999ZM26.625 16.9999C27.6139 16.9999 28.5806 17.2932 29.4029 17.8426C30.2251 18.392 30.866 19.1729 31.2444 20.0865C31.6228 21.0002 31.7219 22.0055 31.5289 22.9754C31.336 23.9453 30.8598 24.8362 30.1605 25.5355C29.4613 26.2347 28.5704 26.7109 27.6005 26.9039C26.6305 27.0968 25.6252 26.9978 24.7116 26.6193C23.798 26.2409 23.0171 25.6 22.4677 24.7778C21.9182 23.9555 21.625 22.9888 21.625 21.9999C21.625 20.6739 22.1518 19.4021 23.0895 18.4644C24.0271 17.5267 25.2989 16.9999 26.625 16.9999Z" fill="white"/>
</svg>
