<svg width="53" height="52" viewBox="0 0 53 52" fill="none" xmlns="http://www.w3.org/2000/svg">
<rect x="0.375" width="52" height="52" rx="10" fill="#D52229"/>
<path d="M20.2738 31.8C20.3788 31.879 20.4985 31.9365 20.6258 31.9692C20.7532 32.0019 20.8857 32.0091 21.0158 31.9906C21.146 31.972 21.2712 31.9279 21.3843 31.8609C21.4974 31.7939 21.5962 31.7052 21.675 31.6C22.2805 30.7927 23.0656 30.1375 23.9681 29.6862C24.8707 29.2349 25.8659 29 26.875 29C27.8841 29 28.8793 29.2349 29.7819 29.6862C30.6845 30.1375 31.4695 30.7927 32.075 31.6C32.1538 31.7051 32.2525 31.7936 32.3655 31.8605C32.4785 31.9274 32.6036 31.9714 32.7336 31.99C32.8636 32.0085 32.996 32.0013 33.1232 31.9687C33.2504 31.9361 33.3699 31.8788 33.475 31.8C33.5801 31.7212 33.6686 31.6225 33.7355 31.5095C33.8024 31.3965 33.8464 31.2714 33.865 31.1414C33.8835 31.0114 33.8763 30.879 33.8437 30.7518C33.8111 30.6246 33.7538 30.5051 33.675 30.4C32.7895 29.2128 31.6087 28.2781 30.25 27.6887C30.9946 27.0089 31.5163 26.1199 31.7466 25.1382C31.9769 24.1566 31.905 23.1283 31.5404 22.1883C31.1759 21.2482 30.5356 20.4404 29.7037 19.8707C28.8717 19.3011 27.887 18.9962 26.8787 18.9962C25.8705 18.9962 24.8858 19.3011 24.0538 19.8707C23.2219 20.4404 22.5816 21.2482 22.2171 22.1883C21.8525 23.1283 21.7806 24.1566 22.0109 25.1382C22.2412 26.1199 22.7629 27.0089 23.5075 27.6887C22.146 28.277 20.9626 29.2118 20.075 30.4C19.9157 30.612 19.8472 30.8786 19.8845 31.1412C19.9217 31.4037 20.0618 31.6407 20.2738 31.8ZM23.875 24C23.875 23.4067 24.0509 22.8266 24.3806 22.3333C24.7102 21.8399 25.1788 21.4554 25.7269 21.2284C26.2751 21.0013 26.8783 20.9419 27.4603 21.0576C28.0422 21.1734 28.5768 21.4591 28.9963 21.8787C29.4159 22.2982 29.7016 22.8328 29.8174 23.4147C29.9331 23.9967 29.8737 24.5999 29.6466 25.1481C29.4196 25.6962 29.0351 26.1648 28.5417 26.4944C28.0484 26.8241 27.4683 27 26.875 27C26.0794 27 25.3163 26.6839 24.7537 26.1213C24.1911 25.5587 23.875 24.7956 23.875 24ZM35.875 13H17.875C17.3446 13 16.8359 13.2107 16.4608 13.5858C16.0857 13.9609 15.875 14.4696 15.875 15V18H13.875C13.6098 18 13.3554 18.1054 13.1679 18.2929C12.9804 18.4804 12.875 18.7348 12.875 19C12.875 19.2652 12.9804 19.5196 13.1679 19.7071C13.3554 19.8946 13.6098 20 13.875 20H15.875V25H13.875C13.6098 25 13.3554 25.1054 13.1679 25.2929C12.9804 25.4804 12.875 25.7348 12.875 26C12.875 26.2652 12.9804 26.5196 13.1679 26.7071C13.3554 26.8946 13.6098 27 13.875 27H15.875V32H13.875C13.6098 32 13.3554 32.1054 13.1679 32.2929C12.9804 32.4804 12.875 32.7348 12.875 33C12.875 33.2652 12.9804 33.5196 13.1679 33.7071C13.3554 33.8946 13.6098 34 13.875 34H15.875V37C15.875 37.5304 16.0857 38.0391 16.4608 38.4142C16.8359 38.7893 17.3446 39 17.875 39H35.875C36.4054 39 36.9141 38.7893 37.2892 38.4142C37.6643 38.0391 37.875 37.5304 37.875 37V15C37.875 14.4696 37.6643 13.9609 37.2892 13.5858C36.9141 13.2107 36.4054 13 35.875 13ZM35.875 37H17.875V15H35.875V37Z" fill="white"/>
</svg>
