<svg width="53" height="52" viewBox="0 0 53 52" fill="none" xmlns="http://www.w3.org/2000/svg">
<rect x="0.125" width="52" height="52" rx="10" fill="#D52229"/>
<path d="M14.125 18C14.125 17.7348 14.2304 17.4804 14.4179 17.2929C14.6054 17.1054 14.8598 17 15.125 17H37.125C37.3902 17 37.6446 17.1054 37.8321 17.2929C38.0196 17.4804 38.125 17.7348 38.125 18C38.125 18.2652 38.0196 18.5196 37.8321 18.7071C37.6446 18.8946 37.3902 19 37.125 19H15.125C14.8598 19 14.6054 18.8946 14.4179 18.7071C14.2304 18.5196 14.125 18.2652 14.125 18ZM15.125 27H24.125C24.3902 27 24.6446 26.8946 24.8321 26.7071C25.0196 26.5196 25.125 26.2652 25.125 26C25.125 25.7348 25.0196 25.4804 24.8321 25.2929C24.6446 25.1054 24.3902 25 24.125 25H15.125C14.8598 25 14.6054 25.1054 14.4179 25.2929C14.2304 25.4804 14.125 25.7348 14.125 26C14.125 26.2652 14.2304 26.5196 14.4179 26.7071C14.6054 26.8946 14.8598 27 15.125 27ZM26.125 33H15.125C14.8598 33 14.6054 33.1054 14.4179 33.2929C14.2304 33.4804 14.125 33.7348 14.125 34C14.125 34.2652 14.2304 34.5196 14.4179 34.7071C14.6054 34.8946 14.8598 35 15.125 35H26.125C26.3902 35 26.6446 34.8946 26.8321 34.7071C27.0196 34.5196 27.125 34.2652 27.125 34C27.125 33.7348 27.0196 33.4804 26.8321 33.2929C26.6446 33.1054 26.3902 33 26.125 33ZM39.8325 34.7075C39.7396 34.8005 39.6293 34.8742 39.5079 34.9246C39.3865 34.9749 39.2564 35.0008 39.125 35.0008C38.9936 35.0008 38.8635 34.9749 38.7421 34.9246C38.6207 34.8742 38.5104 34.8005 38.4175 34.7075L35.875 32.17C34.841 32.8522 33.5907 33.1262 32.3662 32.9391C31.1417 32.752 30.0302 32.117 29.2472 31.1572C28.4642 30.1973 28.0653 28.981 28.1279 27.7439C28.1905 26.5067 28.7101 25.3369 29.586 24.461C30.4619 23.5851 31.6317 23.0655 32.8689 23.0029C34.106 22.9403 35.3223 23.3392 36.2822 24.1222C37.242 24.9052 37.877 26.0167 38.0641 27.2412C38.2512 28.4657 37.9772 29.716 37.295 30.75L39.8325 33.2875C39.9262 33.3805 40.0006 33.4911 40.0514 33.6129C40.1022 33.7348 40.1283 33.8655 40.1283 33.9975C40.1283 34.1295 40.1022 34.2602 40.0514 34.3821C40.0006 34.5039 39.9262 34.6145 39.8325 34.7075ZM33.125 31C33.7183 31 34.2984 30.8241 34.7917 30.4944C35.2851 30.1648 35.6696 29.6962 35.8966 29.1481C36.1237 28.5999 36.1831 27.9967 36.0674 27.4147C35.9516 26.8328 35.6659 26.2982 35.2463 25.8787C34.8268 25.4591 34.2922 25.1734 33.7103 25.0576C33.1283 24.9419 32.5251 25.0013 31.9769 25.2284C31.4288 25.4554 30.9602 25.8399 30.6306 26.3333C30.3009 26.8266 30.125 27.4067 30.125 28C30.125 28.7956 30.4411 29.5587 31.0037 30.1213C31.5663 30.6839 32.3294 31 33.125 31Z" fill="white"/>
</svg>
